<?xml version="1.0" encoding="UTF-8" standalone="no"?>
<!-- Created with Inkscape (http://www.inkscape.org/) -->

<svg
   xmlns:dc="http://purl.org/dc/elements/1.1/"
   xmlns:cc="http://creativecommons.org/ns#"
   xmlns:rdf="http://www.w3.org/1999/02/22-rdf-syntax-ns#"
   xmlns:svg="http://www.w3.org/2000/svg"
   xmlns="http://www.w3.org/2000/svg"
   xmlns:sodipodi="http://sodipodi.sourceforge.net/DTD/sodipodi-0.dtd"
   xmlns:inkscape="http://www.inkscape.org/namespaces/inkscape"
   width="160"
   height="160"
   viewBox="0 0 160 160"
   id="svg2"
   version="1.1"
   inkscape:version="0.91 r13725"
   sodipodi:docname="hat-splotch.svg"
   inkscape:export-filename="/home/jess/dev/hatrack/icons/hat-splotch.png"
   inkscape:export-xdpi="90"
   inkscape:export-ydpi="90">
  <defs
     id="defs4" />
  <sodipodi:namedview
     id="base"
     pagecolor="#ffffff"
     bordercolor="#666666"
     borderopacity="1.0"
     inkscape:pageopacity="0.0"
     inkscape:pageshadow="2"
     inkscape:zoom="3.0027919"
     inkscape:cx="80.477419"
     inkscape:cy="81.273021"
     inkscape:document-units="px"
     inkscape:current-layer="layer1"
     showgrid="false"
     units="px"
     inkscape:window-width="1363"
     inkscape:window-height="735"
     inkscape:window-x="0"
     inkscape:window-y="0"
     inkscape:window-maximized="0" />
  <metadata
     id="metadata7">
    <rdf:RDF>
      <cc:Work
         rdf:about="">
        <dc:format>image/svg+xml</dc:format>
        <dc:type
           rdf:resource="http://purl.org/dc/dcmitype/StillImage" />
        <dc:title></dc:title>
      </cc:Work>
    </rdf:RDF>
  </metadata>
  <g
     inkscape:label="Layer 1"
     inkscape:groupmode="layer"
     id="layer1"
     transform="translate(0,-892.3622)"
     style="display:inline">
    <g
       id="g3365"
       transform="matrix(0.71638212,-0.94729193,0.94798286,0.71585998,-876.94248,329.38724)">
      <path
         sodipodi:nodetypes="csssc"
         inkscape:connector-curvature="0"
         id="path3336"
         d="M 29.133902,960.59843 C -1.7495811,974.50161 7.6412947,1005.7775 18.639617,1006.03 c 14.81676,0.3402 52.92696,-77.49411 92.145633,-47.51595 15.52093,11.86397 -8.29781,11.12757 -20.317316,14.42269 -46.22356,12.67209 -56.067503,34.57816 -72.143637,33.04906"
         style="fill:none;fill-rule:evenodd;stroke:#000000;stroke-width:0.84189945px;stroke-linecap:butt;stroke-linejoin:miter;stroke-opacity:1" />
      <path
         sodipodi:nodetypes="ccc"
         inkscape:connector-curvature="0"
         id="path3338"
         d="m 82.2676,953.24468 c -1.574834,-5.4947 -3.528936,-12.2825 -9.382288,-19.61085 -13.144309,-5.56097 -19.331266,-0.69866 -37.09558,11.06992"
         style="fill:none;fill-rule:evenodd;stroke:#000000;stroke-width:0.84189945px;stroke-linecap:butt;stroke-linejoin:miter;stroke-opacity:1" />
      <path
         sodipodi:nodetypes="cscc"
         inkscape:connector-curvature="0"
         id="path3340"
         d="m 57.175051,969.17508 c -4.741249,3.0574 -24.345746,6.369 -25.588473,1.46224 -3.883884,-15.33505 -1.899578,-22.14344 -1.196237,-27.73186 3.855891,-4.57751 6.324624,-6.17828 17.788767,-6.42878"
         style="fill:none;fill-rule:evenodd;stroke:#000000;stroke-width:0.84189945px;stroke-linecap:butt;stroke-linejoin:miter;stroke-opacity:1" />
      <path
         sodipodi:nodetypes="cc"
         inkscape:connector-curvature="0"
         id="path3361"
         d="M 67.991952,939.04228 C 49.065014,935.82326 40.049611,950.1598 53.054326,947.79882"
         style="fill:none;fill-rule:evenodd;stroke:#000000;stroke-width:0.84189945px;stroke-linecap:butt;stroke-linejoin:miter;stroke-opacity:1" />
      <path
         sodipodi:nodetypes="ccc"
         inkscape:connector-curvature="0"
         id="path3363"
         d="m 31.854103,971.23875 c 0.605926,3.36887 1.133859,6.68659 2.066948,7.57123 2.180947,0.93286 7.650367,1.04773 14.272566,-0.0145"
         style="fill:none;fill-rule:evenodd;stroke:#000000;stroke-width:0.84189945px;stroke-linecap:butt;stroke-linejoin:miter;stroke-opacity:1" />
    </g>
  </g>
  <g
     transform="translate(0,-892.3622)"
     id="g4167"
     inkscape:groupmode="layer"
     inkscape:label="Layer 1 copy"
     style="display:inline">
    <path
       style="fill:#ffffff;fill-opacity:1;fill-rule:evenodd;stroke:none;stroke-width:1;stroke-miterlimit:4;stroke-dasharray:none;stroke-opacity:1"
       d="m 65.981269,158.68968 c -2.241267,-1.18396 -2.540252,-1.98655 -2.37444,-6.37384 0.0808,-2.13789 0.155729,-5.68539 0.166512,-7.88334 0.01878,-3.8315 -0.02158,-4.07134 -0.979465,-5.81669 -0.60926,-1.11013 -1.561803,-2.21411 -2.441332,-2.82945 -1.251991,-0.87593 -1.789284,-1.02481 -4.072696,-1.1285 -3.352464,-0.15224 -6.306225,0.49698 -12.967842,2.85029 -2.839025,1.00292 -7.691033,2.71199 -10.78224,3.79792 -10.975584,3.85571 -15.401398,3.78859 -17.484059,-0.26517 -0.205543,-0.40007 -0.373714,-1.64747 -0.373714,-2.77198 0,-3.49989 1.917577,-8.16294 7.323306,-17.80838 6.220716,-11.09963 8.034954,-16.29787 7.012869,-20.0936 C 28.52465,98.571291 26.661976,96.477739 25.057005,95.926033 23.308633,95.325029 19.147707,95.462428 14.468484,96.275678 8.9645101,97.232271 7.2132297,97.207713 6.1647581,96.159239 5.024565,95.019047 5.0704348,93.064299 6.2979627,90.482705 7.5345882,87.881979 9.330631,86.249212 15.603359,82.023258 c 7.582426,-5.1083 9.644588,-7.556994 10.42025,-12.373415 0.494015,-3.067552 -0.06509,-6.591376 -2.097264,-13.218176 -1.620762,-5.285221 -1.712105,-5.780254 -1.736051,-9.408517 -0.02479,-3.756827 -0.0034,-3.870175 1.124843,-5.951302 2.277165,-4.200514 4.45876,-4.682039 12.337331,-2.723129 8.153059,2.02716 11.880483,1.514371 15.53423,-2.137084 2.634664,-2.633012 4.519707,-6.509384 7.77912,-15.99687 3.533069,-10.2840383 5.287266,-14.1855694 7.72945,-17.1911884 1.037741,-1.2771586 3.022121,-2.29068116 4.484933,-2.29068116 1.285787,0 1.670496,0.19090644 3.123447,1.54997476 1.401785,1.3112062 2.193215,2.6322115 5.137592,8.5753528 1.919587,3.874635 4.156785,7.880951 4.988394,8.933094 2.74061,3.467382 6.176489,4.760432 9.976536,3.754545 2.833556,-0.750055 4.441413,-1.719648 10.8426,-6.538459 3.13549,-2.360392 6.43934,-4.665823 7.34189,-5.12318 4.89841,-2.4822156 8.94803,-1.4323 10.15526,2.632882 0.80054,2.695729 0.59854,7.189822 -0.73268,16.300494 -1.43834,9.843735 -1.69105,17.204648 -0.68003,19.807555 1.22403,3.151278 2.99796,4.533165 6.32051,4.923665 2.55789,0.30063 5.79853,-0.325174 13.24092,-2.55696 10.2099,-3.061701 12.99228,-3.494648 15.64288,-2.434085 1.50696,0.602965 2.468,1.75855 2.82211,3.393415 0.18368,0.847998 0.0362,1.513149 -0.64343,2.902286 -1.02399,2.092965 -3.23103,4.130592 -8.67019,8.004654 -7.20982,5.135218 -10.05555,7.887236 -11.34365,10.970077 -1.10261,2.638938 -0.48093,6.802134 2.50472,16.773041 0.92362,3.08453 1.9766,7.016783 2.33995,8.738333 1.18999,5.63819 0.71101,11.4605 -1.18137,14.36036 -1.55434,2.38184 -3.57838,2.83609 -9.21077,2.06714 -6.91081,-0.94348 -10.16756,-0.34368 -12.48881,2.30008 -3.73083,4.24918 -2.55249,8.77313 5.04524,19.36999 4.40811,6.14816 5.85189,8.73354 5.85189,10.47896 0,2.8138 -3.83003,4.23376 -7.24208,2.68496 -2.55233,-1.15856 -4.43842,-2.70086 -10.37535,-8.48417 -6.25208,-6.09032 -7.72985,-7.35209 -9.8955,-8.44914 -3.48264,-1.76419 -6.492387,-1.6763 -9.576623,0.27966 -1.397166,0.88606 -1.997454,0.95467 -1.249797,0.14284 0.552449,-0.59986 2.036851,-4.75463 2.520981,-7.0561 0.774822,-3.68339 1.128313,-7.29255 1.688319,-17.23796 1.094334,-19.434697 2.86453,-30.854099 6.99509,-45.124669 3.49056,-12.059444 6.35135,-19.253928 11.64945,-29.296712 5.01532,-9.506767 6.22079,-12.450698 6.41778,-15.67322 0.14293,-2.338188 0.0934,-2.580738 -0.7256,-3.554076 -2.33696,-2.777318 -9.9245,-1.741822 -18.68017,2.549344 -7.413798,3.63351 -12.470253,8.667059 -16.075381,16.002557 l -1.882192,3.829769 -4.675172,-1.564737 C 74.353019,36.921521 69.783441,36.018731 64.458993,35.803814 l -4.329305,-0.174751 -2.164652,1.407138 c -7.750773,5.038407 -11.143013,10.775069 -12.699491,21.476257 -0.363615,2.499953 -0.546682,2.905203 -2.969697,6.573908 -4.438944,6.721039 -5.582388,10.682149 -4.660804,16.145921 l 0.402464,2.38608 3.800047,3.681257 c 3.732,3.615336 7.784049,6.859703 10.706353,8.572286 1.198664,0.702466 1.440213,0.998724 1.278597,1.568207 -1.481825,5.221463 -1.52267,16.087463 -0.08113,21.584633 3.395234,12.94744 13.563055,22.60268 25.527783,24.24088 2.502105,0.34259 5.402003,0.1304 7.169385,-0.52458 0.653142,-0.24205 0.652693,-0.23128 -0.02321,0.5558 -0.379087,0.44144 -2.271449,2.67588 -4.205243,4.96542 -4.188285,4.95877 -7.844256,8.54082 -9.992594,9.79056 -2.063962,1.20065 -4.665921,1.46637 -6.236223,0.63685 z"
       id="path4223"
       inkscape:connector-curvature="0"
       transform="translate(0,892.3622)" />
  </g>
</svg>
