<?xml version="1.0" encoding="UTF-8" standalone="no"?>
<!-- Created with Inkscape (http://www.inkscape.org/) -->

<svg
   xmlns:dc="http://purl.org/dc/elements/1.1/"
   xmlns:cc="http://creativecommons.org/ns#"
   xmlns:rdf="http://www.w3.org/1999/02/22-rdf-syntax-ns#"
   xmlns:svg="http://www.w3.org/2000/svg"
   xmlns="http://www.w3.org/2000/svg"
   xmlns:sodipodi="http://sodipodi.sourceforge.net/DTD/sodipodi-0.dtd"
   xmlns:inkscape="http://www.inkscape.org/namespaces/inkscape"
   width="128"
   height="128"
   viewBox="0 0 128 128"
   id="svg2"
   version="1.1"
   inkscape:version="0.91 r13725"
   sodipodi:docname="hats.svg"
   inkscape:export-filename="/home/jess/dev/hatrack/icons/hats.png"
   inkscape:export-xdpi="90"
   inkscape:export-ydpi="90">
  <defs
     id="defs4" />
  <sodipodi:namedview
     id="base"
     pagecolor="#ffffff"
     bordercolor="#666666"
     borderopacity="1.0"
     inkscape:pageopacity="0.0"
     inkscape:pageshadow="2"
     inkscape:zoom="1"
     inkscape:cx="49"
     inkscape:cy="64"
     inkscape:document-units="px"
     inkscape:current-layer="layer1"
     showgrid="false"
     units="px"
     inkscape:window-width="1363"
     inkscape:window-height="735"
     inkscape:window-x="0"
     inkscape:window-y="0"
     inkscape:window-maximized="0" />
  <metadata
     id="metadata7">
    <rdf:RDF>
      <cc:Work
         rdf:about="">
        <dc:format>image/svg+xml</dc:format>
        <dc:type
           rdf:resource="http://purl.org/dc/dcmitype/StillImage" />
        <dc:title></dc:title>
      </cc:Work>
    </rdf:RDF>
  </metadata>
  <g
     inkscape:label="Layer 1"
     inkscape:groupmode="layer"
     id="layer1"
     transform="translate(0,-924.3622)">
    <g
       style="fill:#3f89bd;fill-opacity:1"
       transform="matrix(0.76307518,0,0,0.7652258,-41.345578,203.68924)"
       id="g5900">
      <path
         sodipodi:nodetypes="csssc"
         inkscape:connector-curvature="0"
         id="path5902"
         d="m 69.408277,1012.0972 c -7.52754,33.0216 23.086622,44.3857 29.91898,35.7633 9.204473,-11.6159 -29.916227,-88.9473 17.645823,-102.16267 18.82285,-5.23003 3.87498,13.32895 -0.74271,24.90493 -17.75828,44.51794 -6.21621,65.57874 -17.128484,77.48264"
         style="fill:#3f89bd;fill-opacity:1;fill-rule:evenodd;stroke:#000000;stroke-width:2.61728787;stroke-linecap:butt;stroke-linejoin:miter;stroke-miterlimit:4;stroke-dasharray:none;stroke-opacity:1" />
      <path
         sodipodi:nodetypes="ccc"
         inkscape:connector-curvature="0"
         id="path5904"
         d="M 95.575749,965.27274 C 90.242522,963.2164 83.64898,960.68303 74.273312,960.93465 61.911957,968.06866 62.061054,975.93621 60.74007,997.20415"
         style="fill:#3f89bd;fill-opacity:1;fill-rule:evenodd;stroke:#000000;stroke-width:2.61728787;stroke-linecap:butt;stroke-linejoin:miter;stroke-miterlimit:4;stroke-dasharray:none;stroke-opacity:1" />
      <path
         sodipodi:nodetypes="cscc"
         inkscape:connector-curvature="0"
         id="path5906"
         d="m 93.156921,994.89642 c -0.419267,5.62598 -9.59681,23.26328 -14.260741,21.29648 -14.576139,-6.1469 -18.811635,-11.8348 -22.846117,-15.7652 -1.327284,-5.8361 -1.115999,-8.7708 5.595902,-18.0681"
         style="fill:#3f89bd;fill-opacity:1;fill-rule:evenodd;stroke:#000000;stroke-width:2.61728787;stroke-linecap:butt;stroke-linejoin:miter;stroke-miterlimit:4;stroke-dasharray:none;stroke-opacity:1" />
      <path
         sodipodi:nodetypes="cc"
         inkscape:connector-curvature="0"
         id="path5908"
         d="m 75.638041,968.09941 c -13.97927,13.15945 -7.976762,28.99561 -2.019821,17.1968"
         style="fill:#3f89bd;fill-opacity:1;fill-rule:evenodd;stroke:#000000;stroke-width:2.61728787;stroke-linecap:butt;stroke-linejoin:miter;stroke-miterlimit:4;stroke-dasharray:none;stroke-opacity:1" />
      <path
         sodipodi:nodetypes="ccc"
         inkscape:connector-curvature="0"
         id="path5910"
         d="m 79.537302,1016.3421 c 3.05305,1.5476 6.01827,3.1267 7.28661,2.9156 2.059147,-1.1775 5.448316,-5.4719 8.593389,-11.3956"
         style="fill:#3f89bd;fill-opacity:1;fill-rule:evenodd;stroke:#000000;stroke-width:2.61728787;stroke-linecap:butt;stroke-linejoin:miter;stroke-miterlimit:4;stroke-dasharray:none;stroke-opacity:1" />
      <path
         transform="translate(0,924.3622)"
         inkscape:connector-curvature="0"
         id="path5912"
         d="m 101.34587,115.90552 c -0.21408,-4.22398 -0.84588,-8.34796 -2.998921,-19.574945 -2.902716,-15.136184 -3.793426,-20.80938 -4.508396,-28.715308 -0.359617,-3.976547 -0.357227,-12.377182 0.0044,-15.633588 1.283975,-11.560492 5.224713,-19.482518 12.375677,-24.878694 3.34764,-2.52616 9.21824,-4.998229 13.74707,-5.788791 2.66988,-0.466061 4.04181,-0.281623 4.99493,0.671506 0.66184,0.661834 0.70149,0.806487 0.57605,2.101461 -0.22387,2.311074 -0.8225,3.741567 -5.0946,12.174014 -5.21315,10.28995 -7.28404,15.465606 -10.08996,25.217245 -3.74869,13.028135 -5.08738,21.829757 -6.12545,40.27359 -0.51825,9.20787 -0.98772,12.62166 -2.17085,15.78531 l -0.55243,1.47719 -0.15757,-3.10899 z"
         style="fill:#3f89bd;fill-opacity:1;stroke:#000000;stroke-width:2.61728787;stroke-miterlimit:4;stroke-dasharray:none;stroke-opacity:1" />
      <path
         transform="translate(0,924.3622)"
         inkscape:connector-curvature="0"
         id="path5914"
         d="m 90.217462,125.49368 c -3.256031,-0.43193 -7.421581,-2.19686 -10.303223,-4.36545 -5.678368,-4.27327 -9.426586,-10.60439 -10.614558,-17.92906 -0.61461,-3.789486 -0.452377,-9.644119 0.381222,-13.757489 l 0.254851,-1.257556 2.24739,1.182113 c 1.236065,0.650162 3.621436,1.780822 5.300825,2.512577 1.67939,0.731756 4.033023,1.789782 5.230296,2.351168 1.197273,0.561386 2.71685,1.084655 3.376838,1.162821 l 1.199978,0.14212 1.892455,-1.929294 c 1.08265,-1.103725 2.738308,-3.21774 3.869149,-4.940297 l 1.976696,-3.011003 0.265664,1.301079 c 1.027112,5.030263 3.754118,19.764241 4.196775,22.675121 0.71537,4.70419 0.77948,10.0756 0.14209,11.90348 -1.049236,3.00895 -4.7745,4.57545 -9.416448,3.95967 z"
         style="fill:#3f89bd;fill-opacity:1;stroke:#000000;stroke-width:2.61728787;stroke-miterlimit:4;stroke-dasharray:none;stroke-opacity:1" />
      <path
         transform="translate(0,924.3622)"
         inkscape:connector-curvature="0"
         id="path5916"
         d="m 83.506861,93.19756 -2.160314,-1.032675 1.063856,-0.747772 c 2.809772,-1.974957 7.29763,-8.94009 9.670104,-15.007953 0.393974,-1.007633 0.801955,-2.051908 0.906624,-2.32061 0.127849,-0.328212 0.377311,0.754071 0.76011,3.29771 1.038325,6.899516 1.087276,5.973662 -0.453808,8.583235 -2.667529,4.517022 -5.884759,8.277974 -7.071181,8.266233 -0.305292,-0.003 -1.527218,-0.470196 -2.715391,-1.038168 z"
         style="fill:#3f89bd;fill-opacity:1;stroke:#000000;stroke-width:2.61728787;stroke-miterlimit:4;stroke-dasharray:none;stroke-opacity:1" />
      <path
         transform="translate(0,924.3622)"
         inkscape:connector-curvature="0"
         id="path5918"
         d="M 78.216794,90.880398 C 68.947442,86.562296 65.075146,84.029003 59.735257,78.789596 l -3.214362,-3.153873 -0.310713,-2.088474 c -0.246466,-1.656635 -0.249502,-2.445425 -0.01468,-3.814798 0.334234,-1.949108 1.809048,-5.21974 3.543216,-7.857642 1.33727,-2.034168 1.27616,-2.423562 0.766706,4.885496 -0.467265,6.703785 -0.485994,6.229008 0.245721,6.229008 0.335878,0 0.610687,-0.141609 0.610687,-0.314687 0,-0.173079 0.167687,-2.893689 0.372639,-6.045802 0.847039,-13.027323 1.790108,-17.674331 4.459708,-21.975389 1.458418,-2.349694 4.636936,-5.315722 7.442913,-6.945342 1.1334,-0.658241 1.222635,-0.670262 3.78626,-0.510068 5.551612,0.346906 10.223859,1.384182 16.044781,3.562067 l 1.281351,0.479415 -0.578289,2.134445 c -1.565613,5.778631 -2.158771,12.868092 -1.739833,20.794632 0.338323,6.401246 0.34958,6.007563 -0.232197,8.121983 -1.821638,6.620598 -7.334852,16.016951 -10.709179,18.252014 -1.287949,0.8531 -2.007627,0.927377 -3.273192,0.337817 z m -7.335573,-25.58195 c 0.935362,-0.483696 3.182901,-3.320313 3.182901,-4.017136 0,-0.134352 -0.206308,-0.354688 -0.458463,-0.489638 -0.395292,-0.211554 -0.581568,-0.04592 -1.351899,1.202119 -1.56976,2.543211 -2.978739,3.071455 -3.917727,1.468802 -0.671046,-1.145333 -0.686674,-5.03432 -0.02896,-7.206106 1.075761,-3.552176 3.372694,-7.429779 6.136706,-10.359777 1.54492,-1.637697 1.628565,-1.782491 1.248993,-2.162062 -0.379571,-0.379571 -0.490655,-0.32562 -1.658713,0.805603 -4.279454,4.144501 -7.535614,10.951319 -7.540747,15.763502 -0.0043,4.072558 1.924764,6.268432 4.387907,4.994693 z"
         style="fill:#3f89bd;fill-opacity:1;stroke:#000000;stroke-width:2.61728787;stroke-miterlimit:4;stroke-dasharray:none;stroke-opacity:1" />
      <path
         transform="translate(0,924.3622)"
         inkscape:connector-curvature="0"
         id="path5920"
         d="m 101.59888,117.6916 c -0.0744,-0.20152 -0.20058,-1.58923 -0.28028,-3.0838 -0.17131,-3.2124 -0.95818,-8.11399 -3.416244,-21.28053 -3.531231,-18.914963 -4.115232,-23.659989 -4.126608,-33.528797 -0.0089,-7.678568 0.253363,-10.256198 1.560248,-15.337643 2.048758,-7.966003 6.324624,-14.313716 12.178944,-18.080176 3.13826,-2.019038 8.11,-4.039895 11.79079,-4.79258 2.69685,-0.551479 4.0968,-0.504073 5.10395,0.172835 0.74912,0.503484 0.83736,0.686181 0.90532,1.874496 0.0428,0.748391 -0.0947,1.851816 -0.31871,2.556648 -0.2167,0.682005 -2.19272,4.922451 -4.39114,9.423214 -6.42793,13.159736 -8.32535,18.109118 -11.47169,29.923664 -2.77848,10.433207 -3.88277,18.379178 -5.02431,36.152669 -0.27613,4.29924 -0.67007,8.95587 -0.87543,10.34806 -0.40647,2.75571 -1.41576,6.24498 -1.63484,5.65194 z"
         style="fill:#3f89bd;fill-opacity:1;stroke:#000000;stroke-width:1.30864394;stroke-opacity:1" />
      <path
         transform="translate(0,924.3622)"
         inkscape:connector-curvature="0"
         id="path5922"
         d="m 83.534602,93.092524 -1.8883,-0.869509 1.712304,-1.58533 c 2.812293,-2.603753 6.579805,-8.671375 8.798985,-14.17087 0.475771,-1.17904 0.883207,-1.890258 0.979564,-1.709924 0.223229,0.417776 1.201776,7.035724 1.201776,8.12765 0,0.47978 -0.234278,1.335123 -0.520618,1.900763 -1.034173,2.042919 -3.787647,5.935431 -5.345033,7.556128 -1.900595,1.977859 -2.181687,2.020609 -4.938678,0.751092 z"
         style="fill:#3f89bd;fill-opacity:1;stroke:#000000;stroke-width:1.30864394;stroke-opacity:1" />
      <path
         transform="translate(0,924.3622)"
         inkscape:connector-curvature="0"
         id="path5924"
         d="m 88.171164,124.93483 c -2.652085,-0.72124 -6.173562,-2.41171 -8.171538,-3.92271 -0.833183,-0.63011 -2.427076,-2.11516 -3.541985,-3.30011 -5.519211,-5.86594 -7.995097,-13.72275 -7.279363,-23.09982 0.260639,-3.414711 0.70216,-6.302711 0.943429,-6.170989 3.882028,2.119401 14.290949,6.712541 15.935224,7.031728 l 1.320168,0.256272 1.061269,-1.159551 c 2.141344,-2.339648 3.221318,-3.699097 4.873583,-6.134761 l 1.689094,-2.489955 0.907298,4.697762 c 1.98776,10.292114 3.569288,19.419784 3.833402,22.124204 0.391715,4.01095 0.189773,7.93564 -0.475402,9.23949 -1.107481,2.17084 -3.229028,3.2399 -6.759473,3.40614 -1.781697,0.0839 -2.60364,-0.007 -4.335706,-0.4777 z"
         style="fill:#3f89bd;fill-opacity:1;stroke:#000000;stroke-width:1.30864394;stroke-opacity:1" />
    </g>
    <g
       id="g5874"
       transform="matrix(0.86575206,0,0,0.86697055,-21.874579,114.44805)"
       style="fill:#dc8e20;fill-opacity:1">
      <path
         style="fill:#dc8e20;fill-opacity:1;fill-rule:evenodd;stroke:#000000;stroke-width:2.30850649;stroke-linecap:butt;stroke-linejoin:miter;stroke-miterlimit:4;stroke-dasharray:none;stroke-opacity:1"
         d="m 69.408277,1012.0972 c -7.52754,33.0216 23.086622,44.3857 29.91898,35.7633 9.204473,-11.6159 -29.916227,-88.9473 17.645823,-102.16267 18.82285,-5.23003 3.87498,13.32895 -0.74271,24.90493 -17.75828,44.51794 -6.21621,65.57874 -17.128484,77.48264"
         id="path5876"
         inkscape:connector-curvature="0"
         sodipodi:nodetypes="csssc" />
      <path
         style="fill:#dc8e20;fill-opacity:1;fill-rule:evenodd;stroke:#000000;stroke-width:2.30850649;stroke-linecap:butt;stroke-linejoin:miter;stroke-miterlimit:4;stroke-dasharray:none;stroke-opacity:1"
         d="M 95.575749,965.27274 C 90.242522,963.2164 83.64898,960.68303 74.273312,960.93465 61.911957,968.06866 62.061054,975.93621 60.74007,997.20415"
         id="path5878"
         inkscape:connector-curvature="0"
         sodipodi:nodetypes="ccc" />
      <path
         style="fill:#dc8e20;fill-opacity:1;fill-rule:evenodd;stroke:#000000;stroke-width:2.30850649;stroke-linecap:butt;stroke-linejoin:miter;stroke-miterlimit:4;stroke-dasharray:none;stroke-opacity:1"
         d="m 93.156921,994.89642 c -0.419267,5.62598 -9.59681,23.26328 -14.260741,21.29648 -14.576139,-6.1469 -18.811635,-11.8348 -22.846117,-15.7652 -1.327284,-5.8361 -1.115999,-8.7708 5.595902,-18.0681"
         id="path5880"
         inkscape:connector-curvature="0"
         sodipodi:nodetypes="cscc" />
      <path
         style="fill:#dc8e20;fill-opacity:1;fill-rule:evenodd;stroke:#000000;stroke-width:2.30850649;stroke-linecap:butt;stroke-linejoin:miter;stroke-miterlimit:4;stroke-dasharray:none;stroke-opacity:1"
         d="m 75.638041,968.09941 c -13.97927,13.15945 -7.976762,28.99561 -2.019821,17.1968"
         id="path5882"
         inkscape:connector-curvature="0"
         sodipodi:nodetypes="cc" />
      <path
         style="fill:#dc8e20;fill-opacity:1;fill-rule:evenodd;stroke:#000000;stroke-width:2.30850649;stroke-linecap:butt;stroke-linejoin:miter;stroke-miterlimit:4;stroke-dasharray:none;stroke-opacity:1"
         d="m 79.537302,1016.3421 c 3.05305,1.5476 6.01827,3.1267 7.28661,2.9156 2.059147,-1.1775 5.448316,-5.4719 8.593389,-11.3956"
         id="path5884"
         inkscape:connector-curvature="0"
         sodipodi:nodetypes="ccc" />
      <path
         style="fill:#dc8e20;fill-opacity:1;stroke:#000000;stroke-width:2.30850649;stroke-miterlimit:4;stroke-dasharray:none;stroke-opacity:1"
         d="m 101.34587,115.90552 c -0.21408,-4.22398 -0.84588,-8.34796 -2.998921,-19.574945 -2.902716,-15.136184 -3.793426,-20.80938 -4.508396,-28.715308 -0.359617,-3.976547 -0.357227,-12.377182 0.0044,-15.633588 1.283975,-11.560492 5.224713,-19.482518 12.375677,-24.878694 3.34764,-2.52616 9.21824,-4.998229 13.74707,-5.788791 2.66988,-0.466061 4.04181,-0.281623 4.99493,0.671506 0.66184,0.661834 0.70149,0.806487 0.57605,2.101461 -0.22387,2.311074 -0.8225,3.741567 -5.0946,12.174014 -5.21315,10.28995 -7.28404,15.465606 -10.08996,25.217245 -3.74869,13.028135 -5.08738,21.829757 -6.12545,40.27359 -0.51825,9.20787 -0.98772,12.62166 -2.17085,15.78531 l -0.55243,1.47719 -0.15757,-3.10899 z"
         id="path5886"
         inkscape:connector-curvature="0"
         transform="translate(0,924.3622)" />
      <path
         style="fill:#dc8e20;fill-opacity:1;stroke:#000000;stroke-width:2.30850649;stroke-miterlimit:4;stroke-dasharray:none;stroke-opacity:1"
         d="m 90.217462,125.49368 c -3.256031,-0.43193 -7.421581,-2.19686 -10.303223,-4.36545 -5.678368,-4.27327 -9.426586,-10.60439 -10.614558,-17.92906 -0.61461,-3.789486 -0.452377,-9.644119 0.381222,-13.757489 l 0.254851,-1.257556 2.24739,1.182113 c 1.236065,0.650162 3.621436,1.780822 5.300825,2.512577 1.67939,0.731756 4.033023,1.789782 5.230296,2.351168 1.197273,0.561386 2.71685,1.084655 3.376838,1.162821 l 1.199978,0.14212 1.892455,-1.929294 c 1.08265,-1.103725 2.738308,-3.21774 3.869149,-4.940297 l 1.976696,-3.011003 0.265664,1.301079 c 1.027112,5.030263 3.754118,19.764241 4.196775,22.675121 0.71537,4.70419 0.77948,10.0756 0.14209,11.90348 -1.049236,3.00895 -4.7745,4.57545 -9.416448,3.95967 z"
         id="path5888"
         inkscape:connector-curvature="0"
         transform="translate(0,924.3622)" />
      <path
         style="fill:#dc8e20;fill-opacity:1;stroke:#000000;stroke-width:2.30850649;stroke-miterlimit:4;stroke-dasharray:none;stroke-opacity:1"
         d="m 83.506861,93.19756 -2.160314,-1.032675 1.063856,-0.747772 c 2.809772,-1.974957 7.29763,-8.94009 9.670104,-15.007953 0.393974,-1.007633 0.801955,-2.051908 0.906624,-2.32061 0.127849,-0.328212 0.377311,0.754071 0.76011,3.29771 1.038325,6.899516 1.087276,5.973662 -0.453808,8.583235 -2.667529,4.517022 -5.884759,8.277974 -7.071181,8.266233 -0.305292,-0.003 -1.527218,-0.470196 -2.715391,-1.038168 z"
         id="path5890"
         inkscape:connector-curvature="0"
         transform="translate(0,924.3622)" />
      <path
         style="fill:#dc8e20;fill-opacity:1;stroke:#000000;stroke-width:2.30850649;stroke-miterlimit:4;stroke-dasharray:none;stroke-opacity:1"
         d="M 78.216794,90.880398 C 68.947442,86.562296 65.075146,84.029003 59.735257,78.789596 l -3.214362,-3.153873 -0.310713,-2.088474 c -0.246466,-1.656635 -0.249502,-2.445425 -0.01468,-3.814798 0.334234,-1.949108 1.809048,-5.21974 3.543216,-7.857642 1.33727,-2.034168 1.27616,-2.423562 0.766706,4.885496 -0.467265,6.703785 -0.485994,6.229008 0.245721,6.229008 0.335878,0 0.610687,-0.141609 0.610687,-0.314687 0,-0.173079 0.167687,-2.893689 0.372639,-6.045802 0.847039,-13.027323 1.790108,-17.674331 4.459708,-21.975389 1.458418,-2.349694 4.636936,-5.315722 7.442913,-6.945342 1.1334,-0.658241 1.222635,-0.670262 3.78626,-0.510068 5.551612,0.346906 10.223859,1.384182 16.044781,3.562067 l 1.281351,0.479415 -0.578289,2.134445 c -1.565613,5.778631 -2.158771,12.868092 -1.739833,20.794632 0.338323,6.401246 0.34958,6.007563 -0.232197,8.121983 -1.821638,6.620598 -7.334852,16.016951 -10.709179,18.252014 -1.287949,0.8531 -2.007627,0.927377 -3.273192,0.337817 z m -7.335573,-25.58195 c 0.935362,-0.483696 3.182901,-3.320313 3.182901,-4.017136 0,-0.134352 -0.206308,-0.354688 -0.458463,-0.489638 -0.395292,-0.211554 -0.581568,-0.04592 -1.351899,1.202119 -1.56976,2.543211 -2.978739,3.071455 -3.917727,1.468802 -0.671046,-1.145333 -0.686674,-5.03432 -0.02896,-7.206106 1.075761,-3.552176 3.372694,-7.429779 6.136706,-10.359777 1.54492,-1.637697 1.628565,-1.782491 1.248993,-2.162062 -0.379571,-0.379571 -0.490655,-0.32562 -1.658713,0.805603 -4.279454,4.144501 -7.535614,10.951319 -7.540747,15.763502 -0.0043,4.072558 1.924764,6.268432 4.387907,4.994693 z"
         id="path5892"
         inkscape:connector-curvature="0"
         transform="translate(0,924.3622)" />
      <path
         style="fill:#dc8e20;fill-opacity:1;stroke:#000000;stroke-width:1.15425324;stroke-opacity:1"
         d="m 101.59888,117.6916 c -0.0744,-0.20152 -0.20058,-1.58923 -0.28028,-3.0838 -0.17131,-3.2124 -0.95818,-8.11399 -3.416244,-21.28053 -3.531231,-18.914963 -4.115232,-23.659989 -4.126608,-33.528797 -0.0089,-7.678568 0.253363,-10.256198 1.560248,-15.337643 2.048758,-7.966003 6.324624,-14.313716 12.178944,-18.080176 3.13826,-2.019038 8.11,-4.039895 11.79079,-4.79258 2.69685,-0.551479 4.0968,-0.504073 5.10395,0.172835 0.74912,0.503484 0.83736,0.686181 0.90532,1.874496 0.0428,0.748391 -0.0947,1.851816 -0.31871,2.556648 -0.2167,0.682005 -2.19272,4.922451 -4.39114,9.423214 -6.42793,13.159736 -8.32535,18.109118 -11.47169,29.923664 -2.77848,10.433207 -3.88277,18.379178 -5.02431,36.152669 -0.27613,4.29924 -0.67007,8.95587 -0.87543,10.34806 -0.40647,2.75571 -1.41576,6.24498 -1.63484,5.65194 z"
         id="path5894"
         inkscape:connector-curvature="0"
         transform="translate(0,924.3622)" />
      <path
         style="fill:#dc8e20;fill-opacity:1;stroke:#000000;stroke-width:1.15425324;stroke-opacity:1"
         d="m 83.534602,93.092524 -1.8883,-0.869509 1.712304,-1.58533 c 2.812293,-2.603753 6.579805,-8.671375 8.798985,-14.17087 0.475771,-1.17904 0.883207,-1.890258 0.979564,-1.709924 0.223229,0.417776 1.201776,7.035724 1.201776,8.12765 0,0.47978 -0.234278,1.335123 -0.520618,1.900763 -1.034173,2.042919 -3.787647,5.935431 -5.345033,7.556128 -1.900595,1.977859 -2.181687,2.020609 -4.938678,0.751092 z"
         id="path5896"
         inkscape:connector-curvature="0"
         transform="translate(0,924.3622)" />
      <path
         style="fill:#dc8e20;fill-opacity:1;stroke:#000000;stroke-width:1.15425324;stroke-opacity:1"
         d="m 88.171164,124.93483 c -2.652085,-0.72124 -6.173562,-2.41171 -8.171538,-3.92271 -0.833183,-0.63011 -2.427076,-2.11516 -3.541985,-3.30011 -5.519211,-5.86594 -7.995097,-13.72275 -7.279363,-23.09982 0.260639,-3.414711 0.70216,-6.302711 0.943429,-6.170989 3.882028,2.119401 14.290949,6.712541 15.935224,7.031728 l 1.320168,0.256272 1.061269,-1.159551 c 2.141344,-2.339648 3.221318,-3.699097 4.873583,-6.134761 l 1.689094,-2.489955 0.907298,4.697762 c 1.98776,10.292114 3.569288,19.419784 3.833402,22.124204 0.391715,4.01095 0.189773,7.93564 -0.475402,9.23949 -1.107481,2.17084 -3.229028,3.2399 -6.759473,3.40614 -1.781697,0.0839 -2.60364,-0.007 -4.335706,-0.4777 z"
         id="path5898"
         inkscape:connector-curvature="0"
         transform="translate(0,924.3622)" />
    </g>
    <g
       id="g5860"
       transform="translate(0.73282443,-0.97709924)">
      <path
         sodipodi:nodetypes="csssc"
         inkscape:connector-curvature="0"
         id="path3336"
         d="m 69.408277,1012.0972 c -7.52754,33.0216 23.086622,44.3857 29.91898,35.7633 9.204473,-11.6159 -29.916227,-88.9473 17.645823,-102.16267 18.82285,-5.23003 3.87498,13.32895 -0.74271,24.90493 -17.75828,44.51794 -6.21621,65.57874 -17.128484,77.48264"
         style="fill:none;fill-rule:evenodd;stroke:#000000;stroke-width:2;stroke-linecap:butt;stroke-linejoin:miter;stroke-miterlimit:4;stroke-dasharray:none;stroke-opacity:1" />
      <path
         sodipodi:nodetypes="ccc"
         inkscape:connector-curvature="0"
         id="path3338"
         d="M 95.575749,965.27274 C 90.242522,963.2164 83.64898,960.68303 74.273312,960.93465 61.911957,968.06866 62.061054,975.93621 60.74007,997.20415"
         style="fill:none;fill-rule:evenodd;stroke:#000000;stroke-width:2;stroke-linecap:butt;stroke-linejoin:miter;stroke-miterlimit:4;stroke-dasharray:none;stroke-opacity:1" />
      <path
         sodipodi:nodetypes="cscc"
         inkscape:connector-curvature="0"
         id="path3340"
         d="m 93.156921,994.89642 c -0.419267,5.62598 -9.59681,23.26328 -14.260741,21.29648 -14.576139,-6.1469 -18.811635,-11.8348 -22.846117,-15.7652 -1.327284,-5.8361 -1.115999,-8.7708 5.595902,-18.0681"
         style="fill:none;fill-rule:evenodd;stroke:#000000;stroke-width:2;stroke-linecap:butt;stroke-linejoin:miter;stroke-miterlimit:4;stroke-dasharray:none;stroke-opacity:1" />
      <path
         sodipodi:nodetypes="cc"
         inkscape:connector-curvature="0"
         id="path3361"
         d="m 75.638041,968.09941 c -13.97927,13.15945 -7.976762,28.99561 -2.019821,17.1968"
         style="fill:none;fill-rule:evenodd;stroke:#000000;stroke-width:2;stroke-linecap:butt;stroke-linejoin:miter;stroke-miterlimit:4;stroke-dasharray:none;stroke-opacity:1" />
      <path
         sodipodi:nodetypes="ccc"
         inkscape:connector-curvature="0"
         id="path3363"
         d="m 79.537302,1016.3421 c 3.05305,1.5476 6.01827,3.1267 7.28661,2.9156 2.059147,-1.1775 5.448316,-5.4719 8.593389,-11.3956"
         style="fill:none;fill-rule:evenodd;stroke:#000000;stroke-width:2;stroke-linecap:butt;stroke-linejoin:miter;stroke-miterlimit:4;stroke-dasharray:none;stroke-opacity:1" />
      <path
         transform="translate(0,924.3622)"
         inkscape:connector-curvature="0"
         id="path4304"
         d="m 101.34587,115.90552 c -0.21408,-4.22398 -0.84588,-8.34796 -2.998921,-19.574945 -2.902716,-15.136184 -3.793426,-20.80938 -4.508396,-28.715308 -0.359617,-3.976547 -0.357227,-12.377182 0.0044,-15.633588 1.283975,-11.560492 5.224713,-19.482518 12.375677,-24.878694 3.34764,-2.52616 9.21824,-4.998229 13.74707,-5.788791 2.66988,-0.466061 4.04181,-0.281623 4.99493,0.671506 0.66184,0.661834 0.70149,0.806487 0.57605,2.101461 -0.22387,2.311074 -0.8225,3.741567 -5.0946,12.174014 -5.21315,10.28995 -7.28404,15.465606 -10.08996,25.217245 -3.74869,13.028135 -5.08738,21.829757 -6.12545,40.27359 -0.51825,9.20787 -0.98772,12.62166 -2.17085,15.78531 l -0.55243,1.47719 -0.15757,-3.10899 z"
         style="fill:#00dc00;fill-opacity:1;stroke:#000000;stroke-width:2;stroke-miterlimit:4;stroke-dasharray:none;stroke-opacity:1" />
      <path
         transform="translate(0,924.3622)"
         inkscape:connector-curvature="0"
         id="path4306"
         d="m 90.217462,125.49368 c -3.256031,-0.43193 -7.421581,-2.19686 -10.303223,-4.36545 -5.678368,-4.27327 -9.426586,-10.60439 -10.614558,-17.92906 -0.61461,-3.789486 -0.452377,-9.644119 0.381222,-13.757489 l 0.254851,-1.257556 2.24739,1.182113 c 1.236065,0.650162 3.621436,1.780822 5.300825,2.512577 1.67939,0.731756 4.033023,1.789782 5.230296,2.351168 1.197273,0.561386 2.71685,1.084655 3.376838,1.162821 l 1.199978,0.14212 1.892455,-1.929294 c 1.08265,-1.103725 2.738308,-3.21774 3.869149,-4.940297 l 1.976696,-3.011003 0.265664,1.301079 c 1.027112,5.030263 3.754118,19.764241 4.196775,22.675121 0.71537,4.70419 0.77948,10.0756 0.14209,11.90348 -1.049236,3.00895 -4.7745,4.57545 -9.416448,3.95967 z"
         style="fill:#00dc00;fill-opacity:1;stroke:#000000;stroke-width:2;stroke-miterlimit:4;stroke-dasharray:none;stroke-opacity:1" />
      <path
         transform="translate(0,924.3622)"
         inkscape:connector-curvature="0"
         id="path4308"
         d="m 83.506861,93.19756 -2.160314,-1.032675 1.063856,-0.747772 c 2.809772,-1.974957 7.29763,-8.94009 9.670104,-15.007953 0.393974,-1.007633 0.801955,-2.051908 0.906624,-2.32061 0.127849,-0.328212 0.377311,0.754071 0.76011,3.29771 1.038325,6.899516 1.087276,5.973662 -0.453808,8.583235 -2.667529,4.517022 -5.884759,8.277974 -7.071181,8.266233 -0.305292,-0.003 -1.527218,-0.470196 -2.715391,-1.038168 z"
         style="fill:#00dc00;fill-opacity:1;stroke:#000000;stroke-width:2;stroke-miterlimit:4;stroke-dasharray:none;stroke-opacity:1" />
      <path
         transform="translate(0,924.3622)"
         inkscape:connector-curvature="0"
         id="path4310"
         d="M 78.216794,90.880398 C 68.947442,86.562296 65.075146,84.029003 59.735257,78.789596 l -3.214362,-3.153873 -0.310713,-2.088474 c -0.246466,-1.656635 -0.249502,-2.445425 -0.01468,-3.814798 0.334234,-1.949108 1.809048,-5.21974 3.543216,-7.857642 1.33727,-2.034168 1.27616,-2.423562 0.766706,4.885496 -0.467265,6.703785 -0.485994,6.229008 0.245721,6.229008 0.335878,0 0.610687,-0.141609 0.610687,-0.314687 0,-0.173079 0.167687,-2.893689 0.372639,-6.045802 0.847039,-13.027323 1.790108,-17.674331 4.459708,-21.975389 1.458418,-2.349694 4.636936,-5.315722 7.442913,-6.945342 1.1334,-0.658241 1.222635,-0.670262 3.78626,-0.510068 5.551612,0.346906 10.223859,1.384182 16.044781,3.562067 l 1.281351,0.479415 -0.578289,2.134445 c -1.565613,5.778631 -2.158771,12.868092 -1.739833,20.794632 0.338323,6.401246 0.34958,6.007563 -0.232197,8.121983 -1.821638,6.620598 -7.334852,16.016951 -10.709179,18.252014 -1.287949,0.8531 -2.007627,0.927377 -3.273192,0.337817 z m -7.335573,-25.58195 c 0.935362,-0.483696 3.182901,-3.320313 3.182901,-4.017136 0,-0.134352 -0.206308,-0.354688 -0.458463,-0.489638 -0.395292,-0.211554 -0.581568,-0.04592 -1.351899,1.202119 -1.56976,2.543211 -2.978739,3.071455 -3.917727,1.468802 -0.671046,-1.145333 -0.686674,-5.03432 -0.02896,-7.206106 1.075761,-3.552176 3.372694,-7.429779 6.136706,-10.359777 1.54492,-1.637697 1.628565,-1.782491 1.248993,-2.162062 -0.379571,-0.379571 -0.490655,-0.32562 -1.658713,0.805603 -4.279454,4.144501 -7.535614,10.951319 -7.540747,15.763502 -0.0043,4.072558 1.924764,6.268432 4.387907,4.994693 z"
         style="fill:#419f41;fill-opacity:1;stroke:#000000;stroke-width:2;stroke-miterlimit:4;stroke-dasharray:none;stroke-opacity:1" />
      <path
         transform="translate(0,924.3622)"
         inkscape:connector-curvature="0"
         id="path4312"
         d="m 101.59888,117.6916 c -0.0744,-0.20152 -0.20058,-1.58923 -0.28028,-3.0838 -0.17131,-3.2124 -0.95818,-8.11399 -3.416244,-21.28053 -3.531231,-18.914963 -4.115232,-23.659989 -4.126608,-33.528797 -0.0089,-7.678568 0.253363,-10.256198 1.560248,-15.337643 2.048758,-7.966003 6.324624,-14.313716 12.178944,-18.080176 3.13826,-2.019038 8.11,-4.039895 11.79079,-4.79258 2.69685,-0.551479 4.0968,-0.504073 5.10395,0.172835 0.74912,0.503484 0.83736,0.686181 0.90532,1.874496 0.0428,0.748391 -0.0947,1.851816 -0.31871,2.556648 -0.2167,0.682005 -2.19272,4.922451 -4.39114,9.423214 -6.42793,13.159736 -8.32535,18.109118 -11.47169,29.923664 -2.77848,10.433207 -3.88277,18.379178 -5.02431,36.152669 -0.27613,4.29924 -0.67007,8.95587 -0.87543,10.34806 -0.40647,2.75571 -1.41576,6.24498 -1.63484,5.65194 z"
         style="fill:#419f41;fill-opacity:1;stroke:#000000;stroke-opacity:1" />
      <path
         transform="translate(0,924.3622)"
         inkscape:connector-curvature="0"
         id="path4314"
         d="m 83.534602,93.092524 -1.8883,-0.869509 1.712304,-1.58533 c 2.812293,-2.603753 6.579805,-8.671375 8.798985,-14.17087 0.475771,-1.17904 0.883207,-1.890258 0.979564,-1.709924 0.223229,0.417776 1.201776,7.035724 1.201776,8.12765 0,0.47978 -0.234278,1.335123 -0.520618,1.900763 -1.034173,2.042919 -3.787647,5.935431 -5.345033,7.556128 -1.900595,1.977859 -2.181687,2.020609 -4.938678,0.751092 z"
         style="fill:#419f41;fill-opacity:1;stroke:#000000;stroke-opacity:1" />
      <path
         transform="translate(0,924.3622)"
         inkscape:connector-curvature="0"
         id="path4316"
         d="m 88.171164,124.93483 c -2.652085,-0.72124 -6.173562,-2.41171 -8.171538,-3.92271 -0.833183,-0.63011 -2.427076,-2.11516 -3.541985,-3.30011 -5.519211,-5.86594 -7.995097,-13.72275 -7.279363,-23.09982 0.260639,-3.414711 0.70216,-6.302711 0.943429,-6.170989 3.882028,2.119401 14.290949,6.712541 15.935224,7.031728 l 1.320168,0.256272 1.061269,-1.159551 c 2.141344,-2.339648 3.221318,-3.699097 4.873583,-6.134761 l 1.689094,-2.489955 0.907298,4.697762 c 1.98776,10.292114 3.569288,19.419784 3.833402,22.124204 0.391715,4.01095 0.189773,7.93564 -0.475402,9.23949 -1.107481,2.17084 -3.229028,3.2399 -6.759473,3.40614 -1.781697,0.0839 -2.60364,-0.007 -4.335706,-0.4777 z"
         style="fill:#419f41;fill-opacity:1;stroke:#000000;stroke-opacity:1" />
    </g>
  </g>
</svg>
